<svg width="78" height="27" viewBox="0 0 78 27" fill="none" xmlns="http://www.w3.org/2000/svg">
<path d="M0.836 26V22.652C2.372 21.38 3.86 20.12 5.3 18.872C6.764 17.624 8.06 16.388 9.188 15.164C10.34 13.94 11.252 12.752 11.924 11.6C12.62 10.424 12.968 9.284 12.968 8.18C12.968 7.148 12.68 6.236 12.104 5.444C11.552 4.652 10.628 4.256 9.332 4.256C8.012 4.256 7.016 4.688 6.344 5.552C5.672 6.416 5.336 7.46 5.336 8.684H0.872C0.92 6.836 1.328 5.3 2.096 4.076C2.864 2.828 3.884 1.904 5.156 1.304C6.428 0.679999 7.856 0.368 9.44 0.368C12.008 0.368 14 1.076 15.416 2.492C16.856 3.884 17.576 5.696 17.576 7.928C17.576 9.32 17.252 10.676 16.604 11.996C15.98 13.316 15.152 14.588 14.12 15.812C13.088 17.036 11.972 18.188 10.772 19.268C9.572 20.324 8.408 21.308 7.28 22.22H18.188V26H0.836ZM32.1706 26.432C29.8426 26.432 27.8506 25.892 26.1946 24.812C24.5386 23.708 23.2546 22.184 22.3426 20.24C21.4546 18.272 21.0106 15.992 21.0106 13.4C21.0106 10.832 21.4546 8.564 22.3426 6.596C23.2546 4.628 24.5386 3.104 26.1946 2.024C27.8506 0.92 29.8426 0.368 32.1706 0.368C34.4986 0.368 36.4906 0.92 38.1466 2.024C39.8026 3.104 41.0746 4.628 41.9626 6.596C42.8746 8.564 43.3306 10.832 43.3306 13.4C43.3306 15.992 42.8746 18.272 41.9626 20.24C41.0746 22.184 39.8026 23.708 38.1466 24.812C36.4906 25.892 34.4986 26.432 32.1706 26.432ZM32.1706 22.292C34.0666 22.292 35.6146 21.5 36.8146 19.916C38.0146 18.332 38.6146 16.16 38.6146 13.4C38.6146 10.64 38.0146 8.468 36.8146 6.884C35.6146 5.3 34.0666 4.508 32.1706 4.508C30.2506 4.508 28.6906 5.3 27.4906 6.884C26.3146 8.468 25.7266 10.64 25.7266 13.4C25.7266 16.16 26.3146 18.332 27.4906 19.916C28.6906 21.5 30.2506 22.292 32.1706 22.292ZM50.1332 26V6.056L45.9932 7.028V3.5L52.0772 0.799998H54.9212V26H50.1332ZM68.6994 26.432C66.9714 26.432 65.4114 26.132 64.0194 25.532C62.6274 24.908 61.5114 24.032 60.6714 22.904C59.8554 21.776 59.4474 20.468 59.4474 18.98C59.4474 17.444 59.8434 16.1 60.6354 14.948C61.4514 13.796 62.5194 12.968 63.8394 12.464C62.6874 11.96 61.7754 11.24 61.1034 10.304C60.4314 9.344 60.0954 8.276 60.0954 7.1C60.0954 5.9 60.4194 4.796 61.0674 3.788C61.7154 2.756 62.6754 1.928 63.9474 1.304C65.2434 0.679999 66.8274 0.368 68.6994 0.368C70.5714 0.368 72.1434 0.679999 73.4154 1.304C74.6874 1.928 75.6474 2.756 76.2954 3.788C76.9434 4.796 77.2674 5.9 77.2674 7.1C77.2674 8.252 76.9194 9.32 76.2234 10.304C75.5514 11.264 74.6514 11.984 73.5234 12.464C74.8674 12.968 75.9354 13.796 76.7274 14.948C77.5194 16.1 77.9154 17.444 77.9154 18.98C77.9154 20.468 77.5074 21.776 76.6914 22.904C75.8754 24.032 74.7594 24.908 73.3434 25.532C71.9514 26.132 70.4034 26.432 68.6994 26.432ZM68.6994 11.096C69.9474 11.096 70.9314 10.772 71.6514 10.124C72.3714 9.476 72.7314 8.648 72.7314 7.64C72.7314 6.536 72.3714 5.672 71.6514 5.048C70.9554 4.424 69.9714 4.112 68.6994 4.112C67.4034 4.112 66.4074 4.424 65.7114 5.048C65.0154 5.672 64.6674 6.536 64.6674 7.64C64.6674 8.672 65.0154 9.512 65.7114 10.16C66.4314 10.784 67.4274 11.096 68.6994 11.096ZM68.6994 22.58C70.2354 22.58 71.3994 22.208 72.1914 21.464C72.9834 20.696 73.3794 19.736 73.3794 18.584C73.3794 17.312 72.9594 16.316 72.1194 15.596C71.3034 14.876 70.1634 14.516 68.6994 14.516C67.2354 14.516 66.0714 14.876 65.2074 15.596C64.3674 16.316 63.9474 17.312 63.9474 18.584C63.9474 19.736 64.3434 20.696 65.1354 21.464C65.9514 22.208 67.1394 22.58 68.6994 22.58Z" fill="url(#paint0_linear_159_217)"/>
<defs>
<linearGradient id="paint0_linear_159_217" x1="39.5" y1="-2" x2="39.5" y2="30" gradientUnits="userSpaceOnUse">
<stop stop-color="#FF59A8"/>
<stop offset="1" stop-color="#F9B53A"/>
</linearGradient>
</defs>
</svg>
