<svg width="76" height="27" viewBox="0 0 76 27" fill="none" xmlns="http://www.w3.org/2000/svg">
<path d="M0.836 26V22.652C2.372 21.38 3.86 20.12 5.3 18.872C6.764 17.624 8.06 16.388 9.188 15.164C10.34 13.94 11.252 12.752 11.924 11.6C12.62 10.424 12.968 9.284 12.968 8.18C12.968 7.148 12.68 6.236 12.104 5.444C11.552 4.652 10.628 4.256 9.332 4.256C8.012 4.256 7.016 4.688 6.344 5.552C5.672 6.416 5.336 7.46 5.336 8.684H0.872C0.92 6.836 1.328 5.3 2.096 4.076C2.864 2.828 3.884 1.904 5.156 1.304C6.428 0.679999 7.856 0.368 9.44 0.368C12.008 0.368 14 1.076 15.416 2.492C16.856 3.884 17.576 5.696 17.576 7.928C17.576 9.32 17.252 10.676 16.604 11.996C15.98 13.316 15.152 14.588 14.12 15.812C13.088 17.036 11.972 18.188 10.772 19.268C9.572 20.324 8.408 21.308 7.28 22.22H18.188V26H0.836ZM32.1706 26.432C29.8426 26.432 27.8506 25.892 26.1946 24.812C24.5386 23.708 23.2546 22.184 22.3426 20.24C21.4546 18.272 21.0106 15.992 21.0106 13.4C21.0106 10.832 21.4546 8.564 22.3426 6.596C23.2546 4.628 24.5386 3.104 26.1946 2.024C27.8506 0.92 29.8426 0.368 32.1706 0.368C34.4986 0.368 36.4906 0.92 38.1466 2.024C39.8026 3.104 41.0746 4.628 41.9626 6.596C42.8746 8.564 43.3306 10.832 43.3306 13.4C43.3306 15.992 42.8746 18.272 41.9626 20.24C41.0746 22.184 39.8026 23.708 38.1466 24.812C36.4906 25.892 34.4986 26.432 32.1706 26.432ZM32.1706 22.292C34.0666 22.292 35.6146 21.5 36.8146 19.916C38.0146 18.332 38.6146 16.16 38.6146 13.4C38.6146 10.64 38.0146 8.468 36.8146 6.884C35.6146 5.3 34.0666 4.508 32.1706 4.508C30.2506 4.508 28.6906 5.3 27.4906 6.884C26.3146 8.468 25.7266 10.64 25.7266 13.4C25.7266 16.16 26.3146 18.332 27.4906 19.916C28.6906 21.5 30.2506 22.292 32.1706 22.292ZM46.6094 26V22.652C48.1454 21.38 49.6334 20.12 51.0734 18.872C52.5374 17.624 53.8334 16.388 54.9614 15.164C56.1134 13.94 57.0254 12.752 57.6974 11.6C58.3934 10.424 58.7414 9.284 58.7414 8.18C58.7414 7.148 58.4534 6.236 57.8774 5.444C57.3254 4.652 56.4014 4.256 55.1054 4.256C53.7854 4.256 52.7894 4.688 52.1174 5.552C51.4454 6.416 51.1094 7.46 51.1094 8.684H46.6454C46.6934 6.836 47.1014 5.3 47.8694 4.076C48.6374 2.828 49.6574 1.904 50.9294 1.304C52.2014 0.679999 53.6294 0.368 55.2134 0.368C57.7814 0.368 59.7734 1.076 61.1894 2.492C62.6294 3.884 63.3494 5.696 63.3494 7.928C63.3494 9.32 63.0254 10.676 62.3774 11.996C61.7534 13.316 60.9254 14.588 59.8934 15.812C58.8614 17.036 57.7454 18.188 56.5454 19.268C55.3454 20.324 54.1814 21.308 53.0534 22.22H63.9614V26H46.6094ZM70.5238 26V6.056L66.3838 7.028V3.5L72.4678 0.799998H75.3118V26H70.5238Z" fill="url(#paint0_linear_159_218)"/>
<defs>
<linearGradient id="paint0_linear_159_218" x1="38.5" y1="-2" x2="38.5" y2="30" gradientUnits="userSpaceOnUse">
<stop stop-color="#FF59A8"/>
<stop offset="1" stop-color="#F9B53A"/>
</linearGradient>
</defs>
</svg>
