<svg width="16" height="8" viewBox="0 0 16 8" fill="none" xmlns="http://www.w3.org/2000/svg">
<path d="M3.98328 8L2.37728 5.085H1.92628V8H0.0452813V0.278H3.20228C3.81095 0.278 4.32795 0.384333 4.75328 0.597C5.18595 0.809666 5.50861 1.103 5.72128 1.477C5.93395 1.84367 6.04028 2.25433 6.04028 2.709C6.04028 3.22233 5.89362 3.68067 5.60028 4.084C5.31428 4.48733 4.88895 4.77333 4.32428 4.942L6.10628 8H3.98328ZM1.92628 3.754H3.09228C3.43695 3.754 3.69361 3.66967 3.86228 3.501C4.03828 3.33233 4.12628 3.094 4.12628 2.786C4.12628 2.49267 4.03828 2.26167 3.86228 2.093C3.69361 1.92433 3.43695 1.84 3.09228 1.84H1.92628V3.754ZM15.9661 0.278V8H14.0851V3.369L12.3581 8H10.8401L9.10206 3.358V8H7.22106V0.278H9.44306L11.6101 5.624L13.7551 0.278H15.9661Z" fill="white"/>
</svg>
