<svg width="628" height="235" viewBox="0 0 628 235" fill="none" xmlns="http://www.w3.org/2000/svg">
<path d="M45.776 169.544L44.3427 170.939L44.9316 171.544H45.776V169.544ZM0.432001 122.952L-1.00128 121.557L-2.3588 122.952L-1.00128 124.347L0.432001 122.952ZM45.776 76.36V74.36H44.9316L44.3427 74.9651L45.776 76.36ZM82.384 76.36L83.8173 77.7549L87.1212 74.36H82.384V76.36ZM37.04 122.952L35.6067 121.557L34.2492 122.952L35.6067 124.347L37.04 122.952ZM82.384 169.544V171.544H87.1212L83.8173 168.149L82.384 169.544ZM47.2093 168.149L1.86528 121.557L-1.00128 124.347L44.3427 170.939L47.2093 168.149ZM1.86528 124.347L47.2093 77.7549L44.3427 74.9651L-1.00128 121.557L1.86528 124.347ZM45.776 78.36H82.384V74.36H45.776V78.36ZM80.9507 74.9651L35.6067 121.557L38.4733 124.347L83.8173 77.7549L80.9507 74.9651ZM35.6067 124.347L80.9507 170.939L83.8173 168.149L38.4733 121.557L35.6067 124.347ZM82.384 167.544H45.776V171.544H82.384V167.544ZM194.701 197L192.96 197.985L193.535 199H194.701V197ZM162.669 140.424L164.409 139.439L163.835 138.424H162.669V140.424ZM148.941 140.424V138.424H146.941V140.424H148.941ZM148.941 197V199H150.941V197H148.941ZM119.821 197H117.821V199H119.821V197ZM119.821 51.816V49.816H117.821V51.816H119.821ZM203.021 57.848L202.114 59.6305L202.126 59.6369L202.139 59.6431L203.021 57.848ZM220.701 73.864L218.964 74.8563L218.976 74.8774L218.989 74.8982L220.701 73.864ZM218.413 122.328L220.03 123.504L220.035 123.497L220.04 123.49L218.413 122.328ZM193.661 138.136L193.147 136.203L190.598 136.881L191.938 139.152L193.661 138.136ZM228.397 197V199H231.899L230.119 195.984L228.397 197ZM148.941 118.584H146.941V120.584H148.941V118.584ZM190.957 112.968L192.345 114.408L192.358 114.395L192.371 114.382L190.957 112.968ZM190.957 81.56L189.568 82.9997L189.582 83.0128L189.596 83.0256L190.957 81.56ZM148.941 75.944V73.944H146.941V75.944H148.941ZM196.441 196.015L164.409 139.439L160.928 141.409L192.96 197.985L196.441 196.015ZM162.669 138.424H148.941V142.424H162.669V138.424ZM146.941 140.424V197H150.941V140.424H146.941ZM148.941 195H119.821V199H148.941V195ZM121.821 197V51.816H117.821V197H121.821ZM119.821 53.816H174.317V49.816H119.821V53.816ZM174.317 53.816C185.315 53.816 194.556 55.7851 202.114 59.6305L203.928 56.0654C195.678 51.8682 185.782 49.816 174.317 49.816V53.816ZM202.139 59.6431C209.731 63.3724 215.304 68.4511 218.964 74.8563L222.437 72.8717C218.332 65.6876 212.119 60.0889 203.903 56.0529L202.139 59.6431ZM218.989 74.8982C222.808 81.2203 224.733 88.3461 224.733 96.328H228.733C228.733 87.6699 226.636 79.8197 222.413 72.8298L218.989 74.8982ZM224.733 96.328C224.733 105.48 222.089 113.74 216.785 121.166L220.04 123.49C225.83 115.385 228.733 106.312 228.733 96.328H224.733ZM216.795 121.152C211.57 128.336 203.751 133.384 193.147 136.203L194.175 140.069C205.48 137.064 214.162 131.573 220.03 123.504L216.795 121.152ZM191.938 139.152L226.674 198.016L230.119 195.984L195.383 137.12L191.938 139.152ZM228.397 195H194.701V199H228.397V195ZM148.941 120.584H173.277V116.584H148.941V120.584ZM173.277 120.584C181.46 120.584 187.947 118.648 192.345 114.408L189.568 111.528C186.201 114.776 180.902 116.584 173.277 116.584V120.584ZM192.371 114.382C196.714 110.04 198.781 104.144 198.781 96.952H194.781C194.781 103.35 192.965 108.131 189.543 111.554L192.371 114.382ZM198.781 96.952C198.781 89.8919 196.707 84.1705 192.318 80.0944L189.596 83.0256C192.972 86.1601 194.781 90.7001 194.781 96.952H198.781ZM192.345 80.1203C187.947 75.8795 181.46 73.944 173.277 73.944V77.944C180.902 77.944 186.201 79.7525 189.568 82.9997L192.345 80.1203ZM173.277 73.944H148.941V77.944H173.277V73.944ZM146.941 75.944V118.584H150.941V75.944H146.941ZM411.359 51.816H413.359V49.816H411.359V51.816ZM411.359 197V199H413.359V197H411.359ZM382.239 197H380.239V199H382.239V197ZM382.239 102.568H384.239L380.389 101.806L382.239 102.568ZM343.343 197V199H344.682L345.192 197.762L343.343 197ZM321.295 197L319.447 197.765L319.958 199H321.295V197ZM282.191 102.568L284.039 101.803L280.191 102.568H282.191ZM282.191 197V199H284.191V197H282.191ZM253.071 197H251.071V199H253.071V197ZM253.071 51.816V49.816H251.071V51.816H253.071ZM286.143 51.816L287.982 51.0294L287.463 49.816H286.143V51.816ZM332.319 159.768L330.48 160.555L332.319 164.853L334.158 160.555L332.319 159.768ZM378.495 51.816V49.816H377.175L376.656 51.0294L378.495 51.816ZM409.359 51.816V197H413.359V51.816H409.359ZM411.359 195H382.239V199H411.359V195ZM384.239 197V102.568H380.239V197H384.239ZM380.389 101.806L341.493 196.238L345.192 197.762L384.088 103.33L380.389 101.806ZM343.343 195H321.295V199H343.343V195ZM323.143 196.235L284.039 101.803L280.343 103.333L319.447 197.765L323.143 196.235ZM280.191 102.568V197H284.191V102.568H280.191ZM282.191 195H253.071V199H282.191V195ZM255.071 197V51.816H251.071V197H255.071ZM253.071 53.816H286.143V49.816H253.071V53.816ZM284.304 52.6026L330.48 160.555L334.158 158.981L287.982 51.0294L284.304 52.6026ZM334.158 160.555L380.334 52.6026L376.656 51.0294L330.48 158.981L334.158 160.555ZM378.495 53.816H411.359V49.816H378.495V53.816ZM518.149 0.0239944L520.094 0.489566L520.684 -1.97601H518.149V0.0239944ZM461.989 234.648V236.648H463.567L463.934 235.114L461.989 234.648ZM433.493 234.648L431.548 234.182L430.958 236.648H433.493V234.648ZM489.653 0.0239944V-1.97601H488.075L487.708 -0.441577L489.653 0.0239944ZM516.204 -0.441577L460.044 234.182L463.934 235.114L520.094 0.489566L516.204 -0.441577ZM461.989 232.648H433.493V236.648H461.989V232.648ZM435.438 235.114L491.598 0.489566L487.708 -0.441577L431.548 234.182L435.438 235.114ZM489.653 2.02399H518.149V-1.97601H489.653V2.02399ZM545.465 76.36V74.36H540.713L544.035 77.7582L545.465 76.36ZM582.281 76.36L583.714 74.9651L583.126 74.36H582.281V76.36ZM627.625 122.952L629.058 124.347L630.416 122.952L629.058 121.557L627.625 122.952ZM582.281 169.544V171.544H583.126L583.714 170.939L582.281 169.544ZM545.465 169.544L544.035 168.146L540.713 171.544H545.465V169.544ZM591.017 122.952L592.447 124.35L593.814 122.952L592.447 121.554L591.017 122.952ZM545.465 78.36H582.281V74.36H545.465V78.36ZM580.848 77.7549L626.192 124.347L629.058 121.557L583.714 74.9651L580.848 77.7549ZM626.192 121.557L580.848 168.149L583.714 170.939L629.058 124.347L626.192 121.557ZM582.281 167.544H545.465V171.544H582.281V167.544ZM546.895 170.942L592.447 124.35L589.587 121.554L544.035 168.146L546.895 170.942ZM592.447 121.554L546.895 74.9618L544.035 77.7582L589.587 124.35L592.447 121.554Z" fill="white"/>
</svg>
