<svg width="48" height="48" viewBox="0 0 48 48" fill="none" xmlns="http://www.w3.org/2000/svg">
<path d="M24 18H10C8.93913 18 7.92172 18.4214 7.17157 19.1716C6.42143 19.9217 6 20.9391 6 22V30C6 31.0609 6.42143 32.0783 7.17157 32.8284C7.92172 33.5786 8.93913 34 10 34H16" stroke="url(#paint0_linear_137_248)" stroke-width="3" stroke-linecap="round" stroke-linejoin="round"/>
<path d="M24 30H38C39.0609 30 40.0783 29.5786 40.8284 28.8284C41.5786 28.0783 42 27.0609 42 26V18C42 16.9391 41.5786 15.9217 40.8284 15.1716C40.0783 14.4214 39.0609 14 38 14H32" stroke="url(#paint1_linear_137_248)" stroke-width="3" stroke-linecap="round" stroke-linejoin="round"/>
<path d="M16 18V10C16 8.93913 16.4214 7.92172 17.1716 7.17157C17.9217 6.42143 18.9391 6 20 6H28C29.0609 6 30.0783 6.42143 30.8284 7.17157C31.5786 7.92172 32 8.93913 32 10V20C32 21.0609 31.5786 22.0783 30.8284 22.8284C30.0783 23.5786 29.0609 24 28 24H20C18.9391 24 17.9217 24.4214 17.1716 25.1716C16.4214 25.9217 16 26.9391 16 28V38C16 39.0609 16.4214 40.0783 17.1716 40.8284C17.9217 41.5786 18.9391 42 20 42H28C29.0609 42 30.0783 41.5786 30.8284 40.8284C31.5786 40.0783 32 39.0609 32 38V30" stroke="url(#paint2_linear_137_248)" stroke-width="3" stroke-linecap="round" stroke-linejoin="round"/>
<path d="M22 12V12.02" stroke="url(#paint3_linear_137_248)" stroke-width="3" stroke-linecap="round" stroke-linejoin="round"/>
<path d="M26 36V36.02" stroke="url(#paint4_linear_137_248)" stroke-width="3" stroke-linecap="round" stroke-linejoin="round"/>
<defs>
<linearGradient id="paint0_linear_137_248" x1="15" y1="18" x2="15" y2="34" gradientUnits="userSpaceOnUse">
<stop stop-color="#FF59A8"/>
<stop offset="1" stop-color="#F9B53A"/>
</linearGradient>
<linearGradient id="paint1_linear_137_248" x1="33" y1="14" x2="33" y2="30" gradientUnits="userSpaceOnUse">
<stop stop-color="#FF59A8"/>
<stop offset="1" stop-color="#F9B53A"/>
</linearGradient>
<linearGradient id="paint2_linear_137_248" x1="24" y1="6" x2="24" y2="42" gradientUnits="userSpaceOnUse">
<stop stop-color="#FF59A8"/>
<stop offset="1" stop-color="#F9B53A"/>
</linearGradient>
<linearGradient id="paint3_linear_137_248" x1="22.5" y1="12" x2="22.5" y2="12.02" gradientUnits="userSpaceOnUse">
<stop stop-color="#FF59A8"/>
<stop offset="1" stop-color="#F9B53A"/>
</linearGradient>
<linearGradient id="paint4_linear_137_248" x1="26.5" y1="36" x2="26.5" y2="36.02" gradientUnits="userSpaceOnUse">
<stop stop-color="#FF59A8"/>
<stop offset="1" stop-color="#F9B53A"/>
</linearGradient>
</defs>
</svg>
